<svg width="662" height="162" viewBox="0 0 662 162" fill="none" xmlns="http://www.w3.org/2000/svg">
<path d="M0.5 159.1V26.6002H28V159.1H0.5Z" fill="#6940FF"/>
<path d="M53 159.1V26.6002H78.5V48.8502C81.66 42.1836 86.8267 36.3502 94 31.3502C101.173 26.3502 110.423 23.8502 121.75 23.8502C137.91 23.8502 150.077 28.2235 158.25 36.9702C166.423 45.7169 170.507 58.5102 170.5 75.3502V159.1H143V81.6002C143 70.4402 140.667 62.0236 136 56.3502C131.333 50.6769 123.667 47.8436 113 47.8502C105.333 47.8502 99.1233 49.4735 94.37 52.7202C89.7569 55.8084 86.1156 60.1433 83.87 65.2202C81.6066 70.3822 80.4582 75.9639 80.5 81.6002V159.1H53Z" fill="#6940FF"/>
<path d="M191.75 159.1V26.6002H217.25V48.8502C220.41 42.1836 225.577 36.3502 232.75 31.3502C239.923 26.3502 249.173 23.8502 260.5 23.8502C276.66 23.8502 288.827 28.2235 297 36.9702C305.173 45.7169 309.257 58.5102 309.25 75.3502V159.1H281.75V81.6002C281.75 70.4402 279.417 62.0236 274.75 56.3502C270.083 50.6769 262.417 47.8436 251.75 47.8502C244.083 47.8502 237.873 49.4735 233.12 52.7202C228.507 55.8084 224.866 60.1433 222.62 65.2202C220.357 70.3822 219.208 75.9639 219.25 81.6002V159.1H191.75Z" fill="#6940FF"/>
<path d="M385.5 161.85C374.379 162.02 363.388 159.443 353.5 154.35C343.936 149.287 336.132 141.441 331.12 131.85C325.7 121.85 322.993 109.267 323 94.1001V89.1002C323 74.7668 325.873 62.7668 331.62 53.1002C337.012 43.7804 344.949 36.1905 354.5 31.2202C364.084 26.2879 374.722 23.7587 385.5 23.8502C397.16 23.8502 407.033 25.8502 415.12 29.8502C422.781 33.4885 429.338 39.0964 434.12 46.1002C438.733 53.0218 441.765 60.8745 443 69.1002H415C413.521 63.2602 410.398 57.9673 406 53.8502C401.66 49.8502 394.827 47.8502 385.5 47.8502C379.523 47.8035 373.632 49.2653 368.37 52.1002C362.899 55.1661 358.495 59.8312 355.75 65.4702C352.583 71.5635 351 79.4402 351 89.1002V94.1001C351 104.6 352.583 113.057 355.75 119.47C358.917 125.883 363.123 130.55 368.37 133.47C373.605 136.386 379.507 137.896 385.5 137.85C393.333 137.85 399.667 136.1 404.5 132.6C409.333 129.1 412.833 123.767 415 116.6H443C441.575 125.371 438.009 133.655 432.62 140.72C427.372 147.475 420.55 152.841 412.75 156.35C404.171 160.133 394.874 162.009 385.5 161.85Z" fill="#6940FF"/>
<path d="M661.5 135.85V159.6C660.66 159.77 659.37 159.93 657.62 160.1C655.87 160.27 654.12 160.35 652.37 160.35H647.75C638.25 160.35 630.457 158.977 624.37 156.23C618.309 153.497 613.492 148.591 610.87 142.48C607.95 136.06 606.493 127.517 606.5 116.85V23.8502H634V114.85C634 123.017 635.333 128.644 638 131.73C640.667 134.817 645.583 136.357 652.75 136.35C654.58 136.35 656.16 136.35 657.5 136.23C658.84 136.11 660.16 136 661.5 135.85Z" fill="#6940FF"/>
<path d="M555.92 60.2502L552.85 63.3203L552.13 64.0403L551.74 64.4302C542 74.1902 517.56 98.6302 503.12 113.05L502 114.22L500.9 115.32L492 124.2C490.487 122.689 489.083 121.071 487.8 119.36C487.37 118.79 486.95 118.21 486.55 117.61C485.86 116.61 485.21 115.55 484.61 114.49C484.21 113.77 483.82 113.05 483.45 112.32C483.08 111.59 482.74 110.84 482.45 110.07C482.29 109.69 482.13 109.32 481.98 108.93C481.83 108.54 481.67 108.16 481.53 107.77C481.39 107.38 481.17 106.77 481 106.19C480.83 105.61 480.66 105.14 480.5 104.6C480.3 103.88 480.12 103.15 479.94 102.43C479.76 101.71 479.62 100.96 479.5 100.23C479.43 99.8502 479.37 99.4902 479.31 99.1102C479.25 98.7302 479.21 98.4702 479.18 98.1102C479.15 97.7502 479.11 97.6202 479.09 97.3702C479.09 96.9402 478.99 96.5203 478.96 96.0803C478.95 95.9338 478.95 95.7868 478.96 95.6403C478.96 95.2703 478.9 94.9102 478.88 94.5502C478.86 94.1902 478.88 93.8402 478.88 93.5002C478.88 93.1602 478.88 92.6202 478.88 92.1802C478.88 91.7402 478.88 91.3002 478.88 90.8702C478.88 90.4402 478.88 90.1702 478.88 89.8702C478.88 89.5702 478.88 89.1202 478.96 88.7402V88.3002C478.96 87.8702 479.03 87.4702 479.09 87.0602C479.106 86.8154 479.136 86.5716 479.18 86.3302C479.18 86.0102 479.26 85.6702 479.31 85.3302C479.36 84.9902 479.43 84.5802 479.5 84.2102C479.62 83.4702 479.77 82.7402 479.94 82.0202C480.11 81.3002 480.3 80.5703 480.5 79.8503C480.7 79.1302 480.93 78.4402 481.17 77.7402C481.31 77.3402 481.44 76.9203 481.59 76.5403C483.722 70.7855 487 65.524 491.227 61.0752C495.455 56.6264 500.542 53.083 506.18 50.6602C506.53 50.4902 506.91 50.3503 507.28 50.2003L508.47 49.7402C508.99 49.5602 509.52 49.3703 510.05 49.2003L511.64 48.7102C513.07 48.3002 514.52 47.9702 516 47.7102C516.52 47.6202 517.05 47.5302 517.58 47.4602L518.25 47.3702C518.8 47.3002 519.36 47.2302 519.91 47.1902H520C520.66 47.1202 521.3 47.0702 521.95 47.0502C522.61 47.0502 523.3 47.0002 523.95 47.0002C524.6 47.0002 525.31 47.0002 525.95 47.0502C526.61 47.0502 527.25 47.1202 527.9 47.1902H528C528.55 47.1902 529.11 47.3002 529.66 47.3702L530.34 47.4602C530.86 47.5302 531.34 47.6202 531.92 47.7102C533.39 47.9802 534.84 48.3102 536.27 48.7102C536.98 48.9202 537.69 49.1302 538.39 49.3702L539.63 49.8102C541.547 50.5187 543.411 51.3608 545.21 52.3302C549.149 54.4302 552.758 57.0988 555.92 60.2502Z" fill="#FFCD59"/>
<path d="M589.05 27.1202L572.05 44.1202C565.751 37.6959 558.242 32.5837 549.956 29.0792C541.67 25.5746 532.771 23.7471 523.775 23.7024C514.778 23.6577 505.862 25.3966 497.541 28.8186C489.221 32.2406 481.661 37.2779 475.299 43.6393C468.937 50.0006 463.899 57.5598 460.476 65.88C457.053 74.2002 455.313 83.1163 455.357 92.1129C455.401 101.11 457.227 110.008 460.731 118.295C464.235 126.581 469.346 134.091 475.77 140.39L458.77 157.39C445.934 144.562 437.175 128.225 433.594 110.434C430.013 92.6432 431.769 74.1906 438.643 57.3948C445.517 40.5989 457.201 26.2091 472.227 16.0331C487.254 5.85702 504.953 0.348728 523.1 0.200195H524.68C548.844 0.348728 571.974 10.022 589.05 27.1202Z" fill="#FFCD59"/>
<path d="M592.05 92.2301C592.06 105.217 588.342 117.933 581.34 128.87C575.994 137.21 568.905 144.292 560.56 149.63C547.494 157.987 531.964 161.626 516.545 159.944C501.126 158.261 486.746 151.358 475.79 140.38L492 124.22C493.127 125.361 494.319 126.436 495.57 127.44C495.983 127.78 496.403 128.113 496.83 128.44C497.4 128.86 497.98 129.29 498.58 129.68C499.586 130.379 500.628 131.027 501.7 131.62C502.41 132.03 503.14 132.43 503.88 132.79C504.62 133.15 505.36 133.51 506.12 133.79C506.5 133.97 506.87 134.12 507.26 134.27C507.65 134.42 508.03 134.57 508.42 134.7C508.81 134.83 509.47 135.08 510 135.25C510.53 135.42 511 135.59 511.59 135.73C512.3 135.94 513.03 136.13 513.75 136.29C514.475 136.479 515.209 136.63 515.95 136.74C516.32 136.81 516.69 136.87 517.07 136.92C517.4 136.988 517.734 137.035 518.07 137.06C518.31 137.06 518.56 137.13 518.81 137.15C519.24 137.21 519.66 137.26 520.09 137.28H520.54L521.64 137.37H522.64H523.96H525.27C525.62 137.37 525.97 137.37 526.27 137.37C526.57 137.37 527.02 137.37 527.39 137.28H527.85C528.26 137.28 528.68 137.21 529.08 137.15C529.325 137.14 529.57 137.11 529.81 137.06C530.146 137.034 530.48 136.987 530.81 136.92C531.19 136.92 531.57 136.81 531.94 136.74C532.678 136.631 533.409 136.48 534.13 136.29C534.86 136.13 535.59 135.94 536.29 135.73C536.99 135.52 537.71 135.31 538.41 135.07C538.81 134.94 539.21 134.81 539.61 134.65C545.365 132.519 550.626 129.24 555.075 125.013C559.524 120.786 563.067 115.698 565.49 110.06C565.65 109.7 565.8 109.33 565.95 108.96C566.1 108.59 566.26 108.17 566.41 107.77C566.56 107.37 566.79 106.77 566.95 106.19C567.11 105.61 567.29 105.19 567.44 104.6C567.846 103.161 568.18 101.703 568.44 100.23C568.53 99.7201 568.62 99.2301 568.69 98.6601C568.69 98.4501 568.76 98.2201 568.78 97.9801C568.85 97.4401 568.92 96.8801 568.96 96.3201C568.965 96.287 568.965 96.2532 568.96 96.2201C569.03 95.5701 569.08 94.9201 569.1 94.2201C569.1 93.5501 569.1 92.8701 569.1 92.2201C569.1 91.5701 569.1 90.8701 569.1 90.2201C569.1 89.5601 569.03 88.9101 568.96 88.2701C568.965 88.237 568.965 88.2033 568.96 88.1701C568.96 87.6101 568.85 87.0501 568.78 86.5001C568.78 86.2701 568.72 86.0401 568.69 85.8201C568.62 85.3101 568.53 84.7701 568.44 84.2401C568.17 82.7701 567.84 81.3101 567.44 79.8801C567.23 79.1701 567.01 78.4701 566.77 77.7701C566.65 77.3701 566.5 76.9501 566.34 76.5301C565.629 74.6144 564.787 72.75 563.82 70.9501C563.034 69.4774 562.162 68.0517 561.21 66.6801C559.644 64.3916 557.87 62.2525 555.91 60.2901L572.06 44.1401C578.394 50.445 583.421 57.9388 586.851 66.1914C590.282 74.444 592.048 83.2929 592.05 92.2301Z" fill="#6940FF"/>
<path d="M555.92 60.2602C552.767 57.1146 549.168 54.4495 545.24 52.3501C543.441 51.3807 541.577 50.5386 539.66 49.8301L538.42 49.3902C537.72 49.1502 537.01 48.9401 536.3 48.7302C534.87 48.3202 533.42 47.9902 531.95 47.7302C531.42 47.6402 530.89 47.5501 530.37 47.4802L529.69 47.3902C529.14 47.3202 528.58 47.2501 528.03 47.2101H527.92C527.27 47.1401 526.63 47.0901 525.97 47.0701C525.31 47.0701 524.62 47.0201 523.97 47.0201C523.32 47.0201 522.6 47.0201 521.97 47.0701C521.32 47.0701 520.68 47.1401 520.02 47.2101H519.91C519.36 47.2101 518.8 47.3202 518.25 47.3902L517.58 47.4802C517.05 47.5501 516.52 47.6402 516 47.7302C514.52 48.0002 513.07 48.3302 511.64 48.7302L510.05 49.2201C509.52 49.3901 508.99 49.5801 508.47 49.7601L507.28 50.2201C506.91 50.3701 506.53 50.5101 506.18 50.6801C500.542 53.1029 495.455 56.6463 491.228 61.0951C487 65.5439 483.722 70.8054 481.59 76.5601C481.44 76.9401 481.31 77.3601 481.17 77.7602C480.93 78.4602 480.71 79.1601 480.5 79.8701C480.29 80.5801 480.12 81.3001 479.94 82.0401C479.76 82.7802 479.62 83.4902 479.5 84.2302C479.43 84.6002 479.37 84.9801 479.31 85.3501C479.25 85.7201 479.21 86.0301 479.18 86.3501C479.136 86.5915 479.106 86.8353 479.09 87.0801C479.03 87.4901 478.99 87.8901 478.96 88.3201V88.7601C478.96 89.1401 478.9 89.5102 478.88 89.8902C478.86 90.2701 478.88 90.5802 478.88 90.8902C478.88 91.2001 478.88 91.7802 478.88 92.2001C478.88 92.6201 478.88 93.0802 478.88 93.5202C478.88 93.9602 478.88 94.2001 478.88 94.5701C478.88 94.9401 478.88 95.2901 478.96 95.6601C478.95 95.8066 478.95 95.9536 478.96 96.1001C478.96 96.5401 479.04 96.9602 479.09 97.3902C479.09 97.6402 479.09 97.8901 479.18 98.1301C479.27 98.3701 479.26 98.7701 479.31 99.1301C479.36 99.4901 479.43 99.8701 479.5 100.25C479.62 100.98 479.77 101.72 479.94 102.45C480.11 103.18 480.3 103.9 480.5 104.62C480.66 105.16 480.82 105.69 481 106.21C481.18 106.73 481.35 107.21 481.53 107.79C481.71 108.37 481.82 108.57 481.98 108.95C482.14 109.33 482.29 109.71 482.45 110.09C482.78 110.86 483.12 111.6 483.45 112.34C483.78 113.08 484.21 113.79 484.61 114.51C485.21 115.57 485.86 116.61 486.55 117.63C486.95 118.23 487.37 118.81 487.8 119.38C489.083 121.091 490.487 122.709 492 124.22L475.83 140.38C469.406 134.081 464.295 126.571 460.791 118.285C457.288 109.998 455.461 101.1 455.417 92.1029C455.374 83.1062 457.113 74.1901 460.536 65.87C463.959 57.5498 468.997 49.9905 475.359 43.6292C481.721 37.2679 489.281 32.2306 497.601 28.8086C505.922 25.3866 514.838 23.6476 523.835 23.6924C532.832 23.7371 541.73 25.5646 550.016 29.0691C558.302 32.5737 565.812 37.6859 572.11 44.1101L555.92 60.2602Z" fill="white"/>
<path d="M591.37 139.12C590.323 140.64 589.216 142.12 588.05 143.56C584.275 148.285 579.985 152.575 575.26 156.35C573.82 157.51 572.34 158.617 570.82 159.67L567.07 154.28C574.453 149.155 580.863 142.755 586 135.38L591.37 139.12Z" fill="#6940FF"/>
</svg>
